<?xml version="1.0" encoding="UTF-8"?>
<svg viewBox="0 0 1000 144" version="1.1" xmlns="http://www.w3.org/2000/svg" xmlns:xlink="http://www.w3.org/1999/xlink">
    <title>researchIPSidelogo-dark@1x</title>
    <g id="Page-1" stroke="none" stroke-width="1" fill="none" fill-rule="evenodd">
        <g id="researchIPSidelogo-dark" transform="translate(-0.000000, 0.970000)" fill-rule="nonzero">
            <polygon id="Path" fill="#54C0E8" points="899.02 23.75 911.14 23.75 911.14 122.26 899.02 122.26"></polygon>
            <path d="M941.14,122.26 L941.14,23.75 L965.3,23.75 C969.028638,23.8081467 972.737479,24.3048964 976.35,25.23 C980.353458,26.2009788 984.179923,27.793652 987.69,29.95 C991.165113,32.0719395 994.156241,34.8995434 996.47,38.25 C998.878566,41.868411 1000.10496,46.1450637 999.98,50.49 C999.98,59.03 997.346667,65.81 992.08,70.83 C986.813333,75.85 979.203333,78.3566667 969.25,78.35 L953.25,78.35 L953.25,122.26 L941.14,122.26 Z M953.29,67.1 L966.03,67.1 C969.635796,67.2103922 973.231441,66.661387 976.64,65.48 C979.100112,64.5948016 981.362793,63.2358343 983.3,61.48 C984.877655,60.0002038 986.080756,58.1664172 986.81,56.13 C987.453498,54.3218423 987.791452,52.4191612 987.81,50.5 C987.796135,48.3844629 987.212327,46.3117704 986.12,44.5 C984.955144,42.5276367 983.412305,40.8046863 981.58,39.43 C979.505712,37.889444 977.177017,36.7250966 974.7,35.99 C971.929216,35.1278417 969.041748,34.6994439 966.14,34.72 L953.31,34.72 L953.29,67.1 Z" id="Shape" fill="#54C0E8"></path>
            <path d="M197.01,122.26 L197.01,23.75 L220.01,23.75 C223.571879,23.7943715 227.113644,24.2916971 230.55,25.23 C234.353538,26.2152943 237.982714,27.780292 241.31,29.87 C244.647718,31.9572565 247.515052,34.7156181 249.73,37.97 C252.058931,41.5290407 253.235568,45.7188457 253.1,49.97 C253.1,56.91 251.243333,62.68 247.53,67.28 C243.816667,71.88 238.45,74.9266667 231.43,76.42 C235.136667,84.02 238.87,91.6433333 242.63,99.29 C246.39,106.936667 250.17,114.603333 253.97,122.29 L244.02,122.29 C240.313333,114.69 236.606667,107.136667 232.9,99.63 C229.193333,92.1233333 225.476667,84.5633333 221.75,76.95 C221.144415,77.0428525 220.532662,77.0896533 219.92,77.09 L206.14,77.09 L206.14,122.26 L197.01,122.26 Z M206.14,68.65 L220.04,68.65 C224.016708,68.7605656 227.981491,68.1646632 231.75,66.89 C234.508974,65.9355451 237.029623,64.3972331 239.14,62.38 C240.85255,60.6999115 242.153135,58.6463557 242.94,56.38 C243.647384,54.3194291 244.018793,52.1585075 244.04,49.98 C244.020479,47.5818579 243.364826,45.2318601 242.14,43.17 C240.86361,40.9602398 239.164633,39.0234064 237.14,37.47 C234.881587,35.7644138 232.35321,34.4495226 229.66,33.58 C226.590677,32.5569383 223.375321,32.0401846 220.14,32.0498628 L206.14,32.0498628 L206.14,68.65 Z" id="Shape" fill="#415364"></path>
            <polygon id="Path" fill="#415364" points="272.14 122.26 272.14 23.75 331.3 23.75 331.3 32.2 281.14 32.2 281.14 68.5 325.53 68.5 325.53 76.81 281.14 76.81 281.14 113.96 333.28 113.96 333.28 122.26"></polygon>
            <polygon id="Path" fill="#415364" points="425.6 122.26 425.6 23.75 484.76 23.75 484.76 32.2 434.67 32.2 434.67 68.5 479.05 68.5 479.05 76.81 434.67 76.81 434.67 113.96 486.81 113.96 486.81 122.26"></polygon>
            <path d="M568.92,70.76 C561.4,53.68 553.836667,36.51 546.23,19.25 C538.616667,36.51 531.053333,53.68 523.54,70.76 C516.026667,87.84 508.463333,105.006667 500.85,122.26 L509.93,122.26 C512.93,115.51 544.27,45.33 546.23,39.42 C546.42,40.18 579.36,115.51 582.38,122.26 L591.6,122.26 C583.96,105 576.4,87.8333333 568.92,70.76 Z" id="Path" fill="#415364"></path>
            <path d="M608.22,122.26 L608.22,23.75 L631.22,23.75 C634.781805,23.7953435 638.323448,24.2926519 641.76,25.23 C645.56038,26.2153546 649.186251,27.7803815 652.51,29.87 C655.849888,31.9544721 658.71775,34.713341 660.93,37.97 C663.263125,41.5271334 664.440142,45.718291 664.3,49.97 C664.3,56.91 662.446667,62.68 658.74,67.28 C655.033333,71.88 649.656667,74.9133333 642.61,76.38 C646.316667,83.98 650.05,91.6033333 653.81,99.25 C657.57,106.896667 661.35,114.563333 665.15,122.25 L655.15,122.25 C651.443333,114.65 647.736667,107.096667 644.03,99.59 C640.323333,92.0833333 636.63,84.5366667 632.95,76.95 C632.344505,77.0436286 631.732691,77.090434 631.12,77.09 L617.29,77.09 L617.29,122.26 L608.22,122.26 Z M617.29,68.65 L631.2,68.65 C635.176618,68.7590847 639.141141,68.1632212 642.91,66.89 C645.668571,65.9346898 648.189046,64.3964833 650.3,62.38 C652.01255,60.6999115 653.313135,58.6463557 654.1,56.38 C654.812869,54.3208361 655.184433,52.1590127 655.2,49.98 C655.192919,47.6052363 654.56184,45.2740377 653.37,43.22 C652.09149,41.0117603 650.39285,39.0753102 648.37,37.52 C646.105364,35.7947546 643.566595,34.4628304 640.86,33.58 C637.787865,32.573913 634.572577,32.0740574 631.34,32.1 L617.29,32.1 L617.29,68.65 Z" id="Shape" fill="#415364"></path>
            <path d="M754.81,109.31 L759.81,116.31 C755.844695,118.491748 751.64445,120.21613 747.29,121.45 C742.694066,122.734332 737.941955,123.37378 733.17,123.350951 C719.395356,123.432412 706.127943,118.157719 696.17,108.64 C691.4309,104.086442 687.626403,98.6514457 684.97,92.64 C679.502737,80.148706 679.502737,65.941294 684.97,53.45 C687.621666,47.4358845 691.42677,42.0000206 696.17,37.45 C700.989575,32.8442465 706.621452,29.1721672 712.78,26.62 C719.223524,23.925824 726.14612,22.5651172 733.13,22.62 C737.897485,22.5932346 742.646852,23.2087687 747.25,24.45 C751.666736,25.6591928 755.918482,27.4055653 759.91,29.65 C759.13,30.87 758.3,32.0666667 757.42,33.24 C756.54,34.42 755.67,35.61 754.79,36.83 C748.229716,32.9809898 740.745642,30.9898458 733.14,31.07 C727.386908,31.0278275 721.685121,32.1538963 716.38,34.38 C711.278246,36.4993176 706.630803,39.5783762 702.69,43.45 C698.781431,47.3107391 695.630452,51.8693126 693.4,56.89 C691.104921,62.0020185 689.931921,67.5464894 689.96,73.15 C689.917781,78.7659592 691.062795,84.3274516 693.32,89.47 C695.506523,94.4566321 698.637417,98.9729972 702.54,102.77 C706.496194,106.604916 711.140877,109.658396 716.23,111.77 C721.535447,113.995037 727.237012,115.121062 732.99,115.08 C736.849727,115.090129 740.693582,114.585686 744.42,113.58 C748.046944,112.592857 751.537057,111.158518 754.81,109.31 Z" id="Path" fill="#415364"></path>
            <path d="M783.76,122.26 L783.76,23.75 L792.84,23.75 L792.84,68.5 L846.47,68.5 L846.47,23.75 L855.69,23.75 C855.69,40.27 855.666667,56.69 855.62,73.01 C855.573333,89.33 855.546667,105.746667 855.54,122.26 L846.47,122.26 L846.47,76.81 L792.84,76.81 L792.84,122.26 L783.76,122.26 Z" id="Path" fill="#415364"></path>
            <path d="M400.33,32.81 C399.49,33.81 398.68,34.92 397.89,36.04 C397.1,37.16 396.28,38.24 395.44,39.27 C394.6,38.52 393.57,37.7 392.36,36.81 C391.03871,35.8624622 389.63274,35.0389657 388.16,34.35 C386.468699,33.5649181 384.712014,32.9291656 382.91,32.45 C380.875764,31.9229291 378.781349,31.6640688 376.68,31.68 C373.995268,31.6209199 371.327949,32.1250874 368.85,33.16 C366.754543,34.0413111 364.869765,35.3569071 363.32,37.02 C361.864445,38.6360634 360.745947,40.526291 360.03,42.58 C359.275787,44.7292729 358.896929,46.9922731 358.91,49.27 C358.838278,51.4787269 359.294218,53.6727231 360.24,55.67 C361.108139,57.379408 362.324167,58.8883726 363.81,60.1 C365.402605,61.3792868 367.170646,62.4232725 369.06,63.2 C371.06,64.04 373.19,64.84 375.43,65.58 C378.41,66.62 381.72,67.8633333 385.36,69.31 C388.965963,70.7537646 392.37605,72.6452712 395.51,74.94 C398.638968,77.251207 401.296762,80.1398189 403.34,83.45 C405.549837,87.2427024 406.64187,91.5830982 406.49,95.97 C406.537443,99.8885072 405.735736,103.770814 404.14,107.35 C402.66543,110.638072 400.523453,113.583717 397.85,116 C395.138573,118.422964 391.974463,120.285405 388.54,121.48 C384.898755,122.767113 381.061966,123.413345 377.2,123.390827 C373.740791,123.414088 370.298055,122.911671 366.99,121.9 C363.957763,120.981368 361.026185,119.758481 358.24,118.25 C355.744464,116.908251 353.398045,115.305982 351.24,113.47 C349.482525,111.999798 347.910922,110.320735 346.56,108.47 L352.15,102.85 C353.544912,104.333095 355.01695,105.741712 356.56,107.07 C358.269123,108.530524 360.095255,109.848282 362.02,111.01 C364.088746,112.250486 366.297564,113.240762 368.6,113.96 C373.764782,115.499941 379.273299,115.451162 384.41,113.82 C386.881088,113.032498 389.183744,111.791302 391.2,110.16 C393.19341,108.519406 394.815837,106.47433 395.96,104.16 C397.199879,101.64234 397.823683,98.8660653 397.78,96.06 C397.912461,92.5880654 396.931362,89.1647284 394.98,86.29 C393.144435,83.7535463 390.818515,81.6112508 388.14,79.99 C385.412343,78.3411994 382.498629,77.0219719 379.46,76.06 C376.38,75.06 373.59,74.06 371.07,73.17 C369.39,72.52 367.36,71.67 364.98,70.64 C362.529885,69.558869 360.244132,68.1382685 358.19,66.42 C355.949356,64.5297872 354.077846,62.2412565 352.67,59.67 C351.036533,56.559944 350.201512,53.092717 350.24,49.58 C350.150276,46.4205239 350.551725,43.2662762 351.43,40.23 C352.289429,37.1254462 353.814786,34.2453527 355.9,31.79 C358.164935,29.1607111 360.977243,27.0583061 364.14,25.63 C368.089305,23.9304927 372.362366,23.1147885 376.66,23.24 C380.471196,23.2671495 384.253076,23.9087185 387.86,25.14 C391.693333,26.4066667 395.85,28.9633333 400.33,32.81 Z" id="Path" fill="#415364"></path>
            <polygon id="Path" fill="#54C0E8" points="38.36 33.05 38.36 33.05 38.36 49.55 38.36 49.55 51.79 49.55 51.79 33.05"></polygon>
            <path d="M105.04,39.15 C104.666667,38.8766667 104.286667,38.6166667 103.9,38.37 C103.51,38.12 103.11,37.88 102.71,37.65 C102.1,37.31 101.47,36.99 100.83,36.65 C100.4,36.45 99.96,36.26 99.51,36.07 C99.06,35.88 98.62,35.72 98.16,35.55 L97.47,35.31 L96.05,34.87 C95.57,34.73 95.05,34.6 94.59,34.48 L93.14,34.18 C92.14,33.97 91.14,33.79 90.06,33.64 C88.98,33.49 87.98,33.38 86.92,33.29 L86.79,33.29 C84.91,33.13 82.99,33.06 81.03,33.06 L71.33,33.06 L71.33,49.58 L79.03,49.58 C82.79,49.58 86.8,49.97 89.75,51.64 C90.90106,52.2725793 91.8875275,53.1665655 92.63,54.25 C93.6851962,55.9037611 94.2118818,57.8395925 94.14,59.8 C94.14,63.89 92.48,66.28 90.01,67.68 C86.88,69.47 82.46,69.68 78.54,69.68 L71.29,69.68 L71.29,86.18 L71.51,86.18 C72.93,86.18 74.35,86.18 75.76,86.1 C79.38,85.97 83,85.69 86.61,85.34 C89.5031487,85.1082633 92.3810087,84.7143103 95.23,84.16 L95.23,84.16 C97.7100516,83.6725601 100.10989,82.8411994 102.36,81.69 C106.437666,79.5645744 109.728141,76.1899973 111.75,72.06 C111.94,71.67 112.12,71.28 112.28,70.88 C113.65509,67.3990452 114.334565,63.6823176 114.28,59.94 C114.37,49.93 110.79,43.32 105.04,39.15 Z" id="Path" fill="#54C0E8"></path>
            <polygon id="Path" fill="#415364" points="51.79 33.05 51.79 49.55 51.79 69.68 51.79 86.18 51.79 114.54 71.29 114.54 71.29 86.18 71.29 69.68 71.29 49.55 71.29 33.05"></polygon>
            <path d="M71.29,142.58 C31.9176202,142.58 2.84217094e-14,110.66238 2.84217094e-14,71.29 C2.84217094e-14,31.9176202 31.9176202,0 71.29,0 C110.66238,0 142.58,31.9176202 142.58,71.29 C142.535912,110.644103 110.644103,142.535912 71.29,142.58 Z M71.29,7.18 C35.8830247,7.18 7.18,35.8830247 7.18,71.29 C7.18,106.696975 35.8830247,135.4 71.29,135.4 C106.696975,135.4 135.4,106.696975 135.4,71.29 C135.344896,35.9107334 106.669289,7.24854468 71.29,7.21 L71.29,7.18 Z" id="Shape" fill="#415364"></path>
            <polygon id="Path" fill="#54C0E8" points="43.14 69.78 43.14 86.18 73.21 86.18 73.21 69.78"></polygon>
            <polygon id="Path" fill="#54C0E8" points="899.02 23.75 911.14 23.75 911.14 122.26 899.02 122.26"></polygon>
            <path d="M941.14,122.26 L941.14,23.75 L965.3,23.75 C969.028638,23.8081467 972.737479,24.3048964 976.35,25.23 C980.353458,26.2009788 984.179923,27.793652 987.69,29.95 C991.165113,32.0719395 994.156241,34.8995434 996.47,38.25 C998.878566,41.868411 1000.10496,46.1450637 999.98,50.49 C999.98,59.03 997.346667,65.81 992.08,70.83 C986.813333,75.85 979.203333,78.3566667 969.25,78.35 L953.25,78.35 L953.25,122.26 L941.14,122.26 Z M953.29,67.1 L966.03,67.1 C969.635796,67.2103922 973.231441,66.661387 976.64,65.48 C979.100112,64.5948016 981.362793,63.2358343 983.3,61.48 C984.877655,60.0002038 986.080756,58.1664172 986.81,56.13 C987.453498,54.3218423 987.791452,52.4191612 987.81,50.5 C987.796135,48.3844629 987.212327,46.3117704 986.12,44.5 C984.955144,42.5276367 983.412305,40.8046863 981.58,39.43 C979.505712,37.889444 977.177017,36.7250966 974.7,35.99 C971.929216,35.1278417 969.041748,34.6994439 966.14,34.72 L953.31,34.72 L953.29,67.1 Z" id="Shape" fill="#54C0E8"></path>
            <path d="M197.01,122.26 L197.01,23.75 L220.01,23.75 C223.571879,23.7943715 227.113644,24.2916971 230.55,25.23 C234.353538,26.2152943 237.982714,27.780292 241.31,29.87 C244.647718,31.9572565 247.515052,34.7156181 249.73,37.97 C252.058931,41.5290407 253.235568,45.7188457 253.1,49.97 C253.1,56.91 251.243333,62.68 247.53,67.28 C243.816667,71.88 238.45,74.9266667 231.43,76.42 C235.136667,84.02 238.87,91.6433333 242.63,99.29 C246.39,106.936667 250.17,114.603333 253.97,122.29 L244.02,122.29 C240.313333,114.69 236.606667,107.136667 232.9,99.63 C229.193333,92.1233333 225.476667,84.5633333 221.75,76.95 C221.144415,77.0428525 220.532662,77.0896533 219.92,77.09 L206.14,77.09 L206.14,122.26 L197.01,122.26 Z M206.14,68.65 L220.04,68.65 C224.016708,68.7605656 227.981491,68.1646632 231.75,66.89 C234.508974,65.9355451 237.029623,64.3972331 239.14,62.38 C240.85255,60.6999115 242.153135,58.6463557 242.94,56.38 C243.647384,54.3194291 244.018793,52.1585075 244.04,49.98 C244.020479,47.5818579 243.364826,45.2318601 242.14,43.17 C240.86361,40.9602398 239.164633,39.0234064 237.14,37.47 C234.881587,35.7644138 232.35321,34.4495226 229.66,33.58 C226.590677,32.5569383 223.375321,32.0401846 220.14,32.0498628 L206.14,32.0498628 L206.14,68.65 Z" id="Shape" fill="#FFFFFF"></path>
            <polygon id="Path" fill="#FFFFFF" points="272.14 122.26 272.14 23.75 331.3 23.75 331.3 32.2 281.14 32.2 281.14 68.5 325.53 68.5 325.53 76.81 281.14 76.81 281.14 113.96 333.28 113.96 333.28 122.26"></polygon>
            <polygon id="Path" fill="#FFFFFF" points="425.6 122.26 425.6 23.75 484.76 23.75 484.76 32.2 434.67 32.2 434.67 68.5 479.05 68.5 479.05 76.81 434.67 76.81 434.67 113.96 486.81 113.96 486.81 122.26"></polygon>
            <path d="M568.92,70.76 C561.4,53.68 553.836667,36.51 546.23,19.25 C538.616667,36.51 531.053333,53.68 523.54,70.76 C516.026667,87.84 508.463333,105.006667 500.85,122.26 L509.93,122.26 C512.93,115.51 544.27,45.33 546.23,39.42 C546.42,40.18 579.36,115.51 582.38,122.26 L591.6,122.26 C583.96,105 576.4,87.8333333 568.92,70.76 Z" id="Path" fill="#FFFFFF"></path>
            <path d="M608.22,122.26 L608.22,23.75 L631.22,23.75 C634.781805,23.7953435 638.323448,24.2926519 641.76,25.23 C645.56038,26.2153546 649.186251,27.7803815 652.51,29.87 C655.849888,31.9544721 658.71775,34.713341 660.93,37.97 C663.263125,41.5271334 664.440142,45.718291 664.3,49.97 C664.3,56.91 662.446667,62.68 658.74,67.28 C655.033333,71.88 649.656667,74.9133333 642.61,76.38 C646.316667,83.98 650.05,91.6033333 653.81,99.25 C657.57,106.896667 661.35,114.563333 665.15,122.25 L655.15,122.25 C651.443333,114.65 647.736667,107.096667 644.03,99.59 C640.323333,92.0833333 636.63,84.5366667 632.95,76.95 C632.344505,77.0436286 631.732691,77.090434 631.12,77.09 L617.29,77.09 L617.29,122.26 L608.22,122.26 Z M617.29,68.65 L631.2,68.65 C635.176618,68.7590847 639.141141,68.1632212 642.91,66.89 C645.668571,65.9346898 648.189046,64.3964833 650.3,62.38 C652.01255,60.6999115 653.313135,58.6463557 654.1,56.38 C654.812869,54.3208361 655.184433,52.1590127 655.2,49.98 C655.192919,47.6052363 654.56184,45.2740377 653.37,43.22 C652.09149,41.0117603 650.39285,39.0753102 648.37,37.52 C646.105364,35.7947546 643.566595,34.4628304 640.86,33.58 C637.787865,32.573913 634.572577,32.0740574 631.34,32.1 L617.29,32.1 L617.29,68.65 Z" id="Shape" fill="#FFFFFF"></path>
            <path d="M754.81,109.31 L759.81,116.31 C755.844695,118.491748 751.64445,120.21613 747.29,121.45 C742.694066,122.734332 737.941955,123.37378 733.17,123.350951 C719.395356,123.432412 706.127943,118.157719 696.17,108.64 C691.4309,104.086442 687.626403,98.6514457 684.97,92.64 C679.502737,80.148706 679.502737,65.941294 684.97,53.45 C687.621666,47.4358845 691.42677,42.0000206 696.17,37.45 C700.989575,32.8442465 706.621452,29.1721672 712.78,26.62 C719.223524,23.925824 726.14612,22.5651172 733.13,22.62 C737.897485,22.5932346 742.646852,23.2087687 747.25,24.45 C751.666736,25.6591928 755.918482,27.4055653 759.91,29.65 C759.13,30.87 758.3,32.0666667 757.42,33.24 C756.54,34.42 755.67,35.61 754.79,36.83 C748.229716,32.9809898 740.745642,30.9898458 733.14,31.07 C727.386908,31.0278275 721.685121,32.1538963 716.38,34.38 C711.278246,36.4993176 706.630803,39.5783762 702.69,43.45 C698.781431,47.3107391 695.630452,51.8693126 693.4,56.89 C691.104921,62.0020185 689.931921,67.5464894 689.96,73.15 C689.917781,78.7659592 691.062795,84.3274516 693.32,89.47 C695.506523,94.4566321 698.637417,98.9729972 702.54,102.77 C706.496194,106.604916 711.140877,109.658396 716.23,111.77 C721.535447,113.995037 727.237012,115.121062 732.99,115.08 C736.849727,115.090129 740.693582,114.585686 744.42,113.58 C748.046944,112.592857 751.537057,111.158518 754.81,109.31 Z" id="Path" fill="#FFFFFF"></path>
            <path d="M783.76,122.26 L783.76,23.75 L792.84,23.75 L792.84,68.5 L846.47,68.5 L846.47,23.75 L855.69,23.75 C855.69,40.27 855.666667,56.69 855.62,73.01 C855.573333,89.33 855.546667,105.746667 855.54,122.26 L846.47,122.26 L846.47,76.81 L792.84,76.81 L792.84,122.26 L783.76,122.26 Z" id="Path" fill="#FFFFFF"></path>
            <path d="M400.33,32.81 C399.49,33.81 398.68,34.92 397.89,36.04 C397.1,37.16 396.28,38.24 395.44,39.27 C394.6,38.52 393.57,37.7 392.36,36.81 C391.03871,35.8624622 389.63274,35.0389657 388.16,34.35 C386.468699,33.5649181 384.712014,32.9291656 382.91,32.45 C380.875764,31.9229291 378.781349,31.6640688 376.68,31.68 C373.995268,31.6209199 371.327949,32.1250874 368.85,33.16 C366.754543,34.0413111 364.869765,35.3569071 363.32,37.02 C361.864445,38.6360634 360.745947,40.526291 360.03,42.58 C359.275787,44.7292729 358.896929,46.9922731 358.91,49.27 C358.838278,51.4787269 359.294218,53.6727231 360.24,55.67 C361.108139,57.379408 362.324167,58.8883726 363.81,60.1 C365.402605,61.3792868 367.170646,62.4232725 369.06,63.2 C371.06,64.04 373.19,64.84 375.43,65.58 C378.41,66.62 381.72,67.8633333 385.36,69.31 C388.965963,70.7537646 392.37605,72.6452712 395.51,74.94 C398.638968,77.251207 401.296762,80.1398189 403.34,83.45 C405.549837,87.2427024 406.64187,91.5830982 406.49,95.97 C406.537443,99.8885072 405.735736,103.770814 404.14,107.35 C402.66543,110.638072 400.523453,113.583717 397.85,116 C395.138573,118.422964 391.974463,120.285405 388.54,121.48 C384.898755,122.767113 381.061966,123.413345 377.2,123.390827 C373.740791,123.414088 370.298055,122.911671 366.99,121.9 C363.957763,120.981368 361.026185,119.758481 358.24,118.25 C355.744464,116.908251 353.398045,115.305982 351.24,113.47 C349.482525,111.999798 347.910922,110.320735 346.56,108.47 L352.15,102.85 C353.544912,104.333095 355.01695,105.741712 356.56,107.07 C358.269123,108.530524 360.095255,109.848282 362.02,111.01 C364.088746,112.250486 366.297564,113.240762 368.6,113.96 C373.764782,115.499941 379.273299,115.451162 384.41,113.82 C386.881088,113.032498 389.183744,111.791302 391.2,110.16 C393.19341,108.519406 394.815837,106.47433 395.96,104.16 C397.199879,101.64234 397.823683,98.8660653 397.78,96.06 C397.912461,92.5880654 396.931362,89.1647284 394.98,86.29 C393.144435,83.7535463 390.818515,81.6112508 388.14,79.99 C385.412343,78.3411994 382.498629,77.0219719 379.46,76.06 C376.38,75.06 373.59,74.06 371.07,73.17 C369.39,72.52 367.36,71.67 364.98,70.64 C362.529885,69.558869 360.244132,68.1382685 358.19,66.42 C355.949356,64.5297872 354.077846,62.2412565 352.67,59.67 C351.036533,56.559944 350.201512,53.092717 350.24,49.58 C350.150276,46.4205239 350.551725,43.2662762 351.43,40.23 C352.289429,37.1254462 353.814786,34.2453527 355.9,31.79 C358.164935,29.1607111 360.977243,27.0583061 364.14,25.63 C368.089305,23.9304927 372.362366,23.1147885 376.66,23.24 C380.471196,23.2671495 384.253076,23.9087185 387.86,25.14 C391.693333,26.4066667 395.85,28.9633333 400.33,32.81 Z" id="Path" fill="#FFFFFF"></path>
            <polygon id="Path" fill="#54C0E8" points="38.36 33.05 38.36 33.05 38.36 49.55 38.36 49.55 51.79 49.55 51.79 33.05"></polygon>
            <path d="M105.04,39.15 C104.666667,38.8766667 104.286667,38.6166667 103.9,38.37 C103.51,38.12 103.11,37.88 102.71,37.65 C102.1,37.31 101.47,36.99 100.83,36.65 C100.4,36.45 99.96,36.26 99.51,36.07 C99.06,35.88 98.62,35.72 98.16,35.55 L97.47,35.31 L96.05,34.87 C95.57,34.73 95.05,34.6 94.59,34.48 L93.14,34.18 C92.14,33.97 91.14,33.79 90.06,33.64 C88.98,33.49 87.98,33.38 86.92,33.29 L86.79,33.29 C84.91,33.13 82.99,33.06 81.03,33.06 L71.33,33.06 L71.33,49.58 L79.03,49.58 C82.79,49.58 86.8,49.97 89.75,51.64 C90.90106,52.2725793 91.8875275,53.1665655 92.63,54.25 C93.6851962,55.9037611 94.2118818,57.8395925 94.14,59.8 C94.14,63.89 92.48,66.28 90.01,67.68 C86.88,69.47 82.46,69.68 78.54,69.68 L71.29,69.68 L71.29,86.18 L71.51,86.18 C72.93,86.18 74.35,86.18 75.76,86.1 C79.38,85.97 83,85.69 86.61,85.34 C89.5031487,85.1082633 92.3810087,84.7143103 95.23,84.16 L95.23,84.16 C97.7100516,83.6725601 100.10989,82.8411994 102.36,81.69 C106.437666,79.5645744 109.728141,76.1899973 111.75,72.06 C111.94,71.67 112.12,71.28 112.28,70.88 C113.65509,67.3990452 114.334565,63.6823176 114.28,59.94 C114.37,49.93 110.79,43.32 105.04,39.15 Z" id="Path" fill="#54C0E8"></path>
            <polygon id="Path" fill="#FFFFFF" points="51.79 33.05 51.79 49.55 51.79 69.68 51.79 86.18 51.79 114.54 71.29 114.54 71.29 86.18 71.29 69.68 71.29 49.55 71.29 33.05"></polygon>
            <path d="M71.29,142.58 C31.9176202,142.58 2.84217094e-14,110.66238 2.84217094e-14,71.29 C2.84217094e-14,31.9176202 31.9176202,0 71.29,0 C110.66238,0 142.58,31.9176202 142.58,71.29 C142.535912,110.644103 110.644103,142.535912 71.29,142.58 Z M71.29,7.18 C35.8830247,7.18 7.18,35.8830247 7.18,71.29 C7.18,106.696975 35.8830247,135.4 71.29,135.4 C106.696975,135.4 135.4,106.696975 135.4,71.29 C135.344896,35.9107334 106.669289,7.24854468 71.29,7.21 L71.29,7.18 Z" id="Shape" fill="#FFFFFF"></path>
            <polygon id="Path" fill="#54C0E8" points="43.14 69.78 43.14 86.18 73.21 86.18 73.21 69.78"></polygon>
        </g>
    </g>
</svg>