<svg viewBox="0 0 440 440" version="1.1" xmlns="http://www.w3.org/2000/svg" xmlns:xlink="http://www.w3.org/1999/xlink">
    <g id="Symbols" stroke="none" stroke-width="1" fill="currentColor" fill-rule="evenodd">
        <g id="Overrides/menu-icons/Dashboard">
            <g id="Group-12" transform="translate(32.000000, 44.000000)">
                <g id="Group-3" transform="translate(0.000000, 0.880000)">
                    <path d="M364,277.8582 C364,279.0882 362.961,280.1312 361.727,280.1312 L14.273,280.1312 C13.039,280.1312 12,279.0882 12,277.8582 L12,14.4952 C12,13.2612 13.039,12.2222 14.273,12.2222 L361.727,12.2222 C362.961,12.2222 364,13.2612 364,14.4952 L364,277.8582 Z M157.32,338.0382 L218.684,338.0382 L218.684,292.1322 L157.32,292.1322 L157.32,338.0382 Z M361.727,0.2222 L14.273,0.2222 C6.402,0.2222 0,6.6242 0,14.4952 L0,277.8582 C0,285.7292 6.402,292.1312 14.273,292.1312 L145.32,292.1312 L145.32,338.0422 L88.727,338.0422 C85.414,338.0422 82.727,340.7262 82.727,344.0422 C82.727,347.3542 85.414,350.0422 88.727,350.0422 L287.273,350.0422 C290.586,350.0422 293.273,347.3542 293.273,344.0422 C293.273,340.7262 290.586,338.0422 287.273,338.0422 L230.684,338.0422 L230.684,292.1312 L361.727,292.1312 C369.598,292.1312 376,285.7292 376,277.8582 L376,14.4952 C376,6.6242 369.598,0.2222 361.727,0.2222 L361.727,0.2222 Z" id="Fill-1"></path>
                </g>
                <g id="Group-11" transform="translate(24.000000, 57.880000)">
                    <path d="M321.1836,174.3114 L6.8196,174.3114 C3.5036,174.3114 0.8196,176.9994 0.8196,180.3114 C0.8196,183.6244 3.5036,186.3114 6.8196,186.3114 L321.1836,186.3114 C324.4966,186.3114 327.1836,183.6244 327.1836,180.3114 C327.1836,176.9994 324.4966,174.3114 321.1836,174.3114" id="Fill-4"></path>
                    <path d="M70,142.311 L90,142.311 L90,67.265 L70,67.265 L70,142.311 Z M64,154.311 L96,154.311 C99.312,154.311 102,151.624 102,148.311 L102,61.265 C102,57.952 99.312,55.265 96,55.265 L64,55.265 C60.688,55.265 58,57.952 58,61.265 L58,148.311 C58,151.624 60.688,154.311 64,154.311 L64,154.311 Z" id="Fill-6"></path>
                    <path d="M126,142.312 L146,142.312 L146,38.878 L126,38.878 L126,142.312 Z M120,154.311 L152,154.311 C155.312,154.311 158,151.624 158,148.311 L158,32.878 C158,29.565 155.312,26.878 152,26.878 L120,26.878 C116.688,26.878 114,29.565 114,32.878 L114,148.311 C114,151.624 116.688,154.311 120,154.311 L120,154.311 Z" id="Fill-8"></path>
                    <path d="M182,142.311 L202,142.311 L202,12.038 L182,12.038 L182,142.311 Z M176,154.311 L208,154.311 C211.312,154.311 214,151.624 214,148.311 L214,6.038 C214,2.726 211.312,0.038 208,0.038 L176,0.038 C172.687,0.038 170,2.726 170,6.038 L170,148.311 C170,151.624 172.687,154.311 176,154.311 L176,154.311 Z" id="Fill-9"></path>
                    <path d="M238,142.312 L258,142.312 L258,94.878 L238,94.878 L238,142.312 Z M232,154.311 L264,154.311 C267.312,154.311 270,151.624 270,148.311 L270,88.878 C270,85.565 267.312,82.878 264,82.878 L232,82.878 C228.688,82.878 226,85.565 226,88.878 L226,148.311 C226,151.624 228.688,154.311 232,154.311 L232,154.311 Z" id="Fill-10"></path>
                </g>
            </g>
        </g>
    </g>
</svg>