<svg id="Layer_1" enable-background="new 0 0 512 512" viewBox="0 0 512 512" xmlns="http://www.w3.org/2000/svg"><g><path d="m229.779 55.219c10.233 0 19.814 4.648 26.221 12.557 6.406-7.908 15.987-12.557 26.221-12.557 9.27 0 17.689 3.799 23.811 9.892 4.338 4.338 7.512 9.865 8.986 16.018l.368-.199c5.188-2.777 11.083-4.365 17.292-4.365 10.119 0 19.275 4.111 25.908 10.744 6.634 6.633 10.716 15.789 10.716 25.881 0 3.344-.453 6.547-1.332 9.779 7.568 3.26 14.145 8.361 19.19 14.767 6.689 8.42 10.687 19.078 10.687 30.615s-3.997 22.195-10.687 30.643c-5.046 6.377-11.622 11.48-19.19 14.74.879 3.23 1.332 6.436 1.332 9.781 0 10.119-4.082 19.275-10.716 25.879-6.633 6.633-15.789 10.744-25.908 10.744-6.266 0-12.161-1.559-17.66-4.564-1.475 6.152-4.648 11.68-8.986 16.016-1.928 1.928-4.082 3.629-6.406 5.047l-17.519 93.602h35.49v-33.053c0-6.123 1.56-11.31 4.45-15.762 3.061-4.678 7.059-7.795 11.82-10.516 24.35-13.777 44.704-33.904 58.82-58.111 13.663-23.387 21.487-50.6 21.487-79.627 0-21.939-4.451-42.803-12.502-61.738-8.361-19.73-20.607-37.389-35.773-52.047-2.977-2.861-3.09-7.596-.227-10.572s7.598-3.063 10.574-.199c16.639 16.045 30.047 35.379 39.203 56.949 8.844 20.807 13.719 43.654 13.719 67.607 0 31.777-8.56 61.57-23.527 87.168-15.42 26.418-37.672 48.416-64.376 63.553-2.494 1.389-5.073 3.287-6.661 5.727-1.304 2.012-2.013 4.479-2.013 7.568v40.565 57.685c.002 42.292-34.297 76.564-76.591 76.564-21.146 0-40.281-8.56-54.143-22.422-13.861-13.861-22.45-32.996-22.45-54.143v-57.685-40.565c0-2.779-.709-5.217-2.013-7.258-1.673-2.664-3.94-4.479-6.634-6.01-4.705-2.664-9.325-5.584-13.832-8.758-4.479-3.119-8.845-6.492-13.069-10.092-3.146-2.664-3.515-7.371-.851-10.518 2.665-3.147 7.371-3.514 10.518-.85 3.799 3.232 7.768 6.293 11.963 9.213 4.109 2.891 8.361 5.557 12.727 8.021 4.904 2.779 9.015 6.492 11.85 11.027 2.777 4.422 4.337 9.523 4.337 15.223v33.053h35.49l-17.519-93.602c-2.324-1.418-4.479-3.119-6.406-5.047-4.337-4.336-7.512-9.863-8.986-16.016l-.368.199c-5.188 2.777-11.083 4.365-17.291 4.365-10.12 0-19.276-4.111-25.909-10.744-6.634-6.604-10.716-15.76-10.716-25.879 0-3.346.453-6.551 1.332-9.781-7.568-3.26-14.145-8.363-19.19-14.74-6.689-8.447-10.687-19.105-10.687-30.643 0-11.537 3.997-22.195 10.687-30.615 5.046-6.406 11.622-11.508 19.19-14.767-.879-3.233-1.332-6.436-1.332-9.779 0-10.092 4.082-19.248 10.716-25.881 6.633-6.633 15.789-10.744 25.909-10.744 6.265 0 12.16 1.588 17.659 4.564 1.475-6.152 4.65-11.68 8.986-16.018 6.123-6.09 14.542-9.889 23.811-9.889zm53.717 226.236c-10.602.426-20.835-4.309-27.496-12.529-6.661 8.221-16.895 12.955-27.496 12.529l16.611 88.783h21.77zm34.102 146.469v-42.689h-123.196v42.689h44.618c4.139 0 7.483 3.344 7.483 7.512 0 4.139-3.345 7.484-7.483 7.484h-44.165c1.701 14.002 8.107 26.561 17.604 36.057 11.141 11.139 26.533 18.027 43.541 18.027 31.465 0 57.431-23.613 61.145-54.084h-44.165c-4.139 0-7.483-3.346-7.483-7.484 0-4.168 3.345-7.512 7.483-7.512zm-186.494-157.637c2.551 3.23 1.984 7.936-1.275 10.488-3.26 2.522-7.937 1.955-10.488-1.305-11.679-14.967-20.92-31.861-27.185-50.088-6.038-17.633-9.325-36.541-9.325-56.213 0-47.82 19.389-91.105 50.711-122.459 31.352-31.321 74.637-50.71 122.458-50.71 16.64 0 32.797 2.381 48.134 6.803 15.816 4.564 30.67 11.338 44.248 19.899 3.486 2.213 4.535 6.832 2.354 10.318-2.211 3.486-6.832 4.535-10.318 2.354-12.444-7.852-26.022-14.031-40.451-18.199-13.89-4.025-28.63-6.18-43.966-6.18-43.683 0-83.226 17.717-111.828 46.348-28.631 28.603-46.347 68.146-46.347 111.828 0 18 3.005 35.264 8.532 51.338 5.725 16.723 14.172 32.171 24.746 45.778zm213.706-64.689c-3.487-2.352-7.682-3.713-12.132-3.713-2.382 0-4.395.313-6.662 1.049-3.94 1.275-8.164-.879-9.44-4.818-1.275-3.912.879-8.135 4.791-9.439 3.543-1.135 7.597-1.785 11.311-1.785 7.482 0 14.598 2.268 20.522 6.293 2.948 1.984 5.612 4.422 7.88 7.229 5.698-2.27 10.659-5.982 14.373-10.688 4.62-5.84 7.398-13.266 7.398-21.373s-2.778-15.533-7.398-21.373c-4.733-5.982-11.425-10.348-19.106-12.162-4.025-.936-6.548-4.961-5.612-8.984.198-.852.538-1.645.992-2.326.793-1.502 1.445-3.09 1.898-4.789.454-1.73.681-3.572.681-5.527 0-5.953-2.409-11.367-6.321-15.279s-9.326-6.322-15.307-6.322c-3.714 0-7.172.908-10.205 2.523-4.705 2.524-8.334 6.719-10.148 11.707-.822 2.268-1.247 4.734-1.247 7.371 0 4.393 1.275 8.447 3.515 11.848 2.297 3.516 5.585 6.322 9.468 8.021 3.771 1.645 5.499 6.039 3.855 9.838-1.643 3.799-6.038 5.527-9.836 3.855-6.577-2.863-12.161-7.598-16.044-13.521-3.771-5.756-5.981-12.643-5.981-20.041 0-4.338.794-8.533 2.211-12.445.709-1.984 1.616-3.912 2.665-5.727v-6.094c0-5.131-2.127-9.809-5.5-13.209-3.401-3.402-8.079-5.5-13.21-5.5-5.159 0-9.836 2.098-13.21 5.5-3.401 3.4-5.499 8.078-5.499 13.209v77.5c0 5.158 2.069 9.836 5.471 13.209 3.373 3.402 8.051 5.5 13.238 5.5 5.159 0 9.836-2.098 13.21-5.5 3.402-3.373 5.5-8.051 5.5-13.209 0-4.168 3.345-7.512 7.482-7.512 4.139 0 7.513 3.344 7.513 7.512 0 9.297-3.771 17.717-9.894 23.811-6.094 6.123-14.515 9.893-23.811 9.893-6.945 0-13.38-2.098-18.709-5.668v53.32c0 5.131 2.098 9.809 5.499 13.209 3.374 3.402 8.051 5.5 13.21 5.5 5.131 0 9.809-2.098 13.21-5.5 3.373-3.4 5.5-8.078 5.5-13.209v-8.164c0-4.139 3.345-7.512 7.482-7.512 2.778 0 5.188 1.502 6.492 3.742 1.928 2.807 4.535 5.131 7.568 6.746s6.491 2.551 10.205 2.551c5.98 0 11.395-2.438 15.307-6.35 3.912-3.91 6.321-9.297 6.321-15.277 0-1.957-.227-3.799-.681-5.529-1.331-5.05-4.449-9.442-8.815-12.391zm-193.891-5.186c2.268-2.807 4.932-5.244 7.88-7.229 5.925-4.025 13.04-6.293 20.523-6.293 3.713 0 7.767.65 11.31 1.785 3.912 1.305 6.066 5.527 4.791 9.439-1.275 3.939-5.499 6.094-9.439 4.818-2.268-.736-4.28-1.049-6.661-1.049-4.45 0-8.645 1.361-12.133 3.713-4.365 2.949-7.483 7.342-8.816 12.389-.453 1.73-.681 3.572-.681 5.529 0 5.98 2.409 11.367 6.321 15.277 3.912 3.912 9.326 6.35 15.308 6.35 3.713 0 7.171-.936 10.204-2.551s5.641-3.939 7.568-6.746c1.305-2.24 3.714-3.742 6.492-3.742 4.139 0 7.482 3.373 7.482 7.512v8.164c0 5.131 2.127 9.809 5.528 13.209 3.373 3.402 8.051 5.5 13.182 5.5 5.159 0 9.836-2.098 13.21-5.5 3.401-3.4 5.499-8.078 5.499-13.209v-53.32c-5.329 3.57-11.764 5.668-18.709 5.668-9.297 0-17.718-3.77-23.811-9.893-6.123-6.094-9.893-14.514-9.893-23.811 0-4.168 3.373-7.512 7.512-7.512s7.482 3.344 7.482 7.512c0 5.158 2.098 9.836 5.5 13.209 3.374 3.402 8.052 5.5 13.21 5.5 5.188 0 9.865-2.098 13.238-5.5 3.401-3.373 5.471-8.051 5.471-13.209v-77.5c0-5.131-2.098-9.809-5.499-13.209-3.374-3.402-8.051-5.5-13.21-5.5-5.131 0-9.809 2.098-13.182 5.5-3.401 3.4-5.528 8.078-5.528 13.209v6.094c1.049 1.814 1.957 3.742 2.665 5.727 1.417 3.912 2.211 8.107 2.211 12.445 0 7.398-2.211 14.285-5.981 20.041-3.883 5.924-9.467 10.658-16.043 13.521-3.77 1.672-8.192-.057-9.837-3.855-1.644-3.799.085-8.193 3.855-9.838 3.884-1.699 7.171-4.506 9.468-8.021 2.239-3.4 3.515-7.455 3.515-11.848 0-2.637-.425-5.104-1.247-7.371-1.814-4.988-5.442-9.184-10.148-11.707-3.033-1.615-6.491-2.523-10.204-2.523-5.981 0-11.395 2.41-15.308 6.322-3.912 3.912-6.321 9.326-6.321 15.279 0 1.955.227 3.797.681 5.527.736 2.721 2.353 4.875 2.891 7.115.936 4.023-1.587 8.049-5.612 8.984-7.682 1.814-14.372 6.18-19.106 12.162-4.62 5.84-7.398 13.266-7.398 21.373s2.778 15.533 7.398 21.373c3.741 4.708 8.674 8.421 14.372 10.69z"/></g></svg>