<svg clip-rule="evenodd" fill-rule="evenodd" stroke-linejoin="round" stroke-miterlimit="2" viewBox="0 0 48 48" xmlns="http://www.w3.org/2000/svg"><g transform="translate(-432 -432)"><g id="Icon"><path d="m438 479h36c2.761 0 5-2.239 5-5 0-6.926 0-21.074 0-28 0-2.761-2.239-5-5-5h-3v-3c0-2.761-2.239-5-5-5-6.926 0-21.074 0-28 0-2.761 0-5 2.239-5 5v36c0 1.326.527 2.598 1.464 3.536.938.937 2.21 1.464 3.536 1.464zm36-2c1.657 0 3-1.343 3-3v-28c0-1.657-1.343-3-3-3h-3v31c0 1.657 1.343 3 3 3zm-5-3v-36c0-1.657-1.343-3-3-3h-28c-1.657 0-3 1.343-3 3v36c0 .796.316 1.559.879 2.121.562.563 1.325.879 2.121.879h32c-.628-.836-1-1.874-1-3z"/><path d="m444 441h16c.552 0 1-.448 1-1s-.448-1-1-1h-16c-.552 0-1 .448-1 1s.448 1 1 1z"/><path d="m440 461h10c.552 0 1-.448 1-1s-.448-1-1-1h-10c-.552 0-1 .448-1 1s.448 1 1 1z"/><g transform="translate(0 4)"><path d="m440 461h10c.552 0 1-.448 1-1s-.448-1-1-1h-10c-.552 0-1 .448-1 1s.448 1 1 1z"/></g><g transform="translate(0 8)"><path d="m440 461h10c.552 0 1-.448 1-1s-.448-1-1-1h-10c-.552 0-1 .448-1 1s.448 1 1 1z"/></g><g transform="translate(0 12)"><path d="m440 461h10c.552 0 1-.448 1-1s-.448-1-1-1h-10c-.552 0-1 .448-1 1s.448 1 1 1z"/></g><path d="m454 461h10c.552 0 1-.448 1-1s-.448-1-1-1h-10c-.552 0-1 .448-1 1s.448 1 1 1z"/><g transform="translate(0 4)"><path d="m454 461h10c.552 0 1-.448 1-1s-.448-1-1-1h-10c-.552 0-1 .448-1 1s.448 1 1 1z"/></g><g transform="translate(0 8)"><path d="m454 461h10c.552 0 1-.448 1-1s-.448-1-1-1h-10c-.552 0-1 .448-1 1s.448 1 1 1z"/></g><g transform="translate(0 12)"><path d="m454 461h10c.552 0 1-.448 1-1s-.448-1-1-1h-10c-.552 0-1 .448-1 1s.448 1 1 1z"/></g><path d="m465 454v-8c0-.796-.316-1.559-.879-2.121-.562-.563-1.325-.879-2.121-.879-4.52 0-15.48 0-20 0-.796 0-1.559.316-2.121.879-.563.562-.879 1.325-.879 2.121v8c0 .796.316 1.559.879 2.121.562.563 1.325.879 2.121.879h20c.796 0 1.559-.316 2.121-.879.563-.562.879-1.325.879-2.121zm-2.064.351-4.229-4.23c-.187-.187-.442-.293-.707-.293s-.52.106-.707.293l-4.879 4.879h9.586c.265 0 .52-.105.707-.293.102-.102.18-.224.229-.356zm-12.35-.351-1.879-1.879c-.187-.187-.442-.293-.707-.293s-.52.106-.707.293l-2.879 2.879h5.172zm12.414-2.414v-5.586c0-.265-.105-.52-.293-.707-.187-.188-.442-.293-.707-.293h-20c-.265 0-.52.105-.707.293-.188.187-.293.442-.293.707v8c0 .265.105.52.293.707.102.102.224.18.356.229l4.23-4.229c.562-.563 1.325-.879 2.121-.879s1.559.317 2.121.879l1.879 1.879 3.879-3.879c.562-.562 1.325-.879 2.121-.879s1.559.316 2.121.879z"/></g></g></svg>